<svg xmlns="http://www.w3.org/2000/svg" width="24" height="24" viewBox="0 0 24 24" role="img" aria-label="Instagram">
  <defs>
    <linearGradient id="ig" x1="0%" y1="0%" x2="100%" y2="100%">
      <stop offset="0%" stop-color="#F58529"/>
      <stop offset="25%" stop-color="#FEDA77"/>
      <stop offset="50%" stop-color="#DD2A7B"/>
      <stop offset="75%" stop-color="#8134AF"/>
      <stop offset="100%" stop-color="#515BD4"/>
    </linearGradient>
  </defs>
  <rect width="24" height="24" rx="5" fill="url(#ig)"/>
  <rect x="5" y="5" width="14" height="14" rx="4.2" fill="none" stroke="#fff" stroke-width="1.2"/>
  <path fill="#fff" d="M12 7.3c-2.6 0-4.7 2.1-4.7 4.7s2.1 4.7 4.7 4.7 4.7-2.1 4.7-4.7-2.1-4.7-4.7-4.7zm0 7.5c-1.5 0-2.8-1.2-2.8-2.8S10.5 9.2 12 9.2s2.8 1.2 2.8 2.8-1.3 2.8-2.8 2.8zM16.8 7c.6 0 1 .4 1 1s-.4 1-1 1-1-.4-1-1 .5-1 1-1z"/>
</svg>
